<svg xmlns="http://www.w3.org/2000/svg" xmlns:xlink="http://www.w3.org/1999/xlink" xmlns:ifc="http://www.ifcopenshell.org/ns" width="400mm" height="239.797mm" viewBox="0 0 400 239.797">
    <defs>
        <marker id="arrowend" markerWidth="10" markerHeight="7" refX="10" refY="3.5" orient="auto">
          <polygon points="0 0, 10 3.5, 0 7"/>
        </marker>
        <marker id="arrowstart" markerWidth="10" markerHeight="7" refX="0" refY="3.5" orient="auto">
          <polygon points="10 0, 0 3.5, 10 7"/>
        </marker>
    </defs>
    <g ifc:name="Elevation ALG_2D_elements" class="section" ifc:plane="[[1.000000,0.000000,0.000000,0.000000],[0.000000,1.000000,0.000000,0.000000],[0.000000,0.000000,1.000000,1.600006],[0.000000,0.000000,0.000000,1.000000]]" ifc:matrix3="[[20.000000,0.000000,1025.592115],[0.000000,20.000000,608.237586],[0.000000,0.000000,1.000000]]">
        <g id="product-34593c12-bf33-47d8-8c90-93f9394b1fc3" class="IfcFurniture material-null projection" ifc:name="2dDigibord" ifc:guid="0qMJmIlpD7s8oGa$avIn$3">
            <path d="M301.859,114.531 L298.859,114.531"/>
            <path d="M301.859,114.831 L301.859,114.531"/>
            <path d="M263.799,114.831 L301.859,114.831"/>
            <path d="M263.799,114.531 L263.799,114.831"/>
            <path d="M266.799,114.531 L263.799,114.531"/>
            <path d="M298.859,114.531 L266.799,114.531"/>
            <path d="M291.125,112.531 L298.859,114.531"/>
            <path d="M274.534,112.531 L291.125,112.531"/>
            <path d="M266.799,114.531 L274.534,112.531"/>
        </g>
        <g id="product-0d50aadd-5f44-4ef1-b881-64fbd373d463" class="IfcFurniture material-null projection" ifc:name="2dBureauEnStoel" ifc:guid="0DKAhTNqHEyRY1PFlJSzHZ">
            <path d="M286.57,62.285 L286.799,62.3307"/>
            <path d="M286.375,62.155 L286.57,62.285"/>
            <path d="M286.245,61.9603 L286.375,62.155"/>
            <path d="M286.199,61.7307 L286.245,61.9603"/>
            <path d="M286.199,58.1307 L286.199,61.7307"/>
            <path d="M286.245,57.9011 L286.199,58.1307"/>
            <path d="M286.375,57.7064 L286.245,57.9011"/>
            <path d="M286.57,57.5764 L286.375,57.7064"/>
            <path d="M286.799,57.5307 L286.57,57.5764"/>
            <path d="M287.199,57.5307 L286.799,57.5307"/>
            <path d="M287.429,57.5764 L287.199,57.5307"/>
            <path d="M287.624,57.7064 L287.429,57.5764"/>
            <path d="M287.754,57.9011 L287.624,57.7064"/>
            <path d="M287.799,58.1307 L287.754,57.9011"/>
            <path d="M287.799,61.7307 L287.799,58.1307"/>
            <path d="M287.754,61.9603 L287.799,61.7307"/>
            <path d="M287.624,62.155 L287.754,61.9603"/>
            <path d="M287.429,62.285 L287.624,62.155"/>
            <path d="M287.199,62.3307 L287.429,62.285"/>
            <path d="M286.799,62.3307 L287.199,62.3307"/>
            <path d="M275.67,62.285 L275.899,62.3307"/>
            <path d="M275.475,62.155 L275.67,62.285"/>
            <path d="M275.345,61.9603 L275.475,62.155"/>
            <path d="M275.299,61.7307 L275.345,61.9603"/>
            <path d="M275.299,58.1307 L275.299,61.7307"/>
            <path d="M275.345,57.9011 L275.299,58.1307"/>
            <path d="M275.475,57.7064 L275.345,57.9011"/>
            <path d="M275.67,57.5764 L275.475,57.7064"/>
            <path d="M275.899,57.5307 L275.67,57.5764"/>
            <path d="M276.299,57.5307 L275.899,57.5307"/>
            <path d="M276.529,57.5764 L276.299,57.5307"/>
            <path d="M276.724,57.7064 L276.529,57.5764"/>
            <path d="M276.854,57.9011 L276.724,57.7064"/>
            <path d="M276.899,58.1307 L276.854,57.9011"/>
            <path d="M276.899,61.7307 L276.899,58.1307"/>
            <path d="M276.854,61.9603 L276.899,61.7307"/>
            <path d="M276.724,62.155 L276.854,61.9603"/>
            <path d="M276.529,62.285 L276.724,62.155"/>
            <path d="M276.299,62.3307 L276.529,62.285"/>
            <path d="M275.899,62.3307 L276.299,62.3307"/>
            <path d="M276.573,54.16 L276.48,54.1834"/>
            <path d="M286.563,54.16 L276.573,54.16"/>
            <path d="M286.651,54.1805 L286.563,54.16"/>
            <path d="M286.721,54.2376 L286.651,54.1805"/>
            <path d="M286.759,54.3198 L286.721,54.2376"/>
            <path d="M286.757,54.4102 L286.759,54.3198"/>
            <path d="M286.629,55.8318 L286.757,54.4102"/>
            <path d="M286.549,56.1152 L286.629,55.8318"/>
            <path d="M286.372,56.3505 L286.549,56.1152"/>
            <path d="M286.121,56.5058 L286.372,56.3505"/>
            <path d="M285.832,56.56 L286.121,56.5058"/>
            <path d="M277.307,56.56 L285.832,56.56"/>
            <path d="M277.017,56.5056 L277.307,56.56"/>
            <path d="M276.766,56.3498 L277.017,56.5056"/>
            <path d="M276.589,56.1137 L276.766,56.3498"/>
            <path d="M276.51,55.8296 L276.589,56.1137"/>
            <path d="M276.388,54.4346 L276.51,55.8296"/>
            <path d="M276.374,54.3388 L276.388,54.4346"/>
            <path d="M276.408,54.248 L276.374,54.3388"/>
            <path d="M276.48,54.1834 L276.408,54.248"/>
            <path d="M263.799,80.5307 L263.799,65.3307"/>
            <path d="M300.399,80.5307 L263.799,80.5307"/>
            <path d="M300.399,65.3307 L300.399,80.5307"/>
            <path d="M263.799,65.3307 L300.399,65.3307"/>
            <path d="M286.999,54.4307 L286.999,57.5307"/>
            <path d="M286.969,54.2776 L286.999,54.4307"/>
            <path d="M286.882,54.1478 L286.969,54.2776"/>
            <path d="M286.753,54.0611 L286.882,54.1478"/>
            <path d="M286.599,54.0307 L286.753,54.0611"/>
            <path d="M276.499,54.0307 L286.599,54.0307"/>
            <path d="M276.346,54.0611 L276.499,54.0307"/>
            <path d="M276.217,54.1478 L276.346,54.0611"/>
            <path d="M276.13,54.2776 L276.217,54.1478"/>
            <path d="M276.099,54.4307 L276.13,54.2776"/>
            <path d="M276.099,57.5307 L276.099,54.4307"/>
            <path d="M276.099,64.7307 L276.099,62.3307"/>
            <path d="M286.999,64.7307 L276.099,64.7307"/>
            <path d="M286.999,62.3307 L286.999,64.7307"/>
        </g>
        <g id="product-9aa8ef11-8544-4015-86ef-18c594f608ce" class="IfcFurniture material-null projection" ifc:name="2dPantryKlein" ifc:guid="2QgEyHXKH05ORl6CMKzWZE">
            <path d="M265.576,100.358 L265.268,100.152"/>
            <path d="M265.939,100.431 L265.576,100.358"/>
            <path d="M271.259,100.431 L265.939,100.431"/>
            <path d="M271.623,100.358 L271.259,100.431"/>
            <path d="M271.931,100.152 L271.623,100.358"/>
            <path d="M272.137,99.8443 L271.931,100.152"/>
            <path d="M272.209,99.4807 L272.137,99.8443"/>
            <path d="M272.209,95.3007 L272.209,99.4807"/>
            <path d="M272.137,94.9372 L272.209,95.3007"/>
            <path d="M271.931,94.629 L272.137,94.9372"/>
            <path d="M271.623,94.4231 L271.931,94.629"/>
            <path d="M271.259,94.3507 L271.623,94.4231"/>
            <path d="M265.939,94.3507 L271.259,94.3507"/>
            <path d="M265.576,94.423 L265.939,94.3507"/>
            <path d="M265.268,94.629 L265.576,94.423"/>
            <path d="M265.062,94.9372 L265.268,94.629"/>
            <path d="M264.989,95.3007 L265.062,94.9372"/>
            <path d="M264.989,99.4807 L264.989,95.3007"/>
            <path d="M265.062,99.8443 L264.989,99.4807"/>
            <path d="M265.268,100.152 L265.062,99.8443"/>
            <path d="M265.417,100.515 L265.092,100.298"/>
            <path d="M265.799,100.591 L265.417,100.515"/>
            <path d="M271.399,100.591 L265.799,100.591"/>
            <path d="M271.782,100.515 L271.399,100.591"/>
            <path d="M272.107,100.298 L271.782,100.515"/>
            <path d="M272.323,99.9734 L272.107,100.298"/>
            <path d="M272.399,99.5907 L272.323,99.9734"/>
            <path d="M272.399,95.1907 L272.399,99.5907"/>
            <path d="M272.323,94.8081 L272.399,95.1907"/>
            <path d="M272.107,94.4836 L272.323,94.8081"/>
            <path d="M271.782,94.2669 L272.107,94.4836"/>
            <path d="M271.399,94.1907 L271.782,94.2669"/>
            <path d="M265.799,94.1907 L271.399,94.1907"/>
            <path d="M265.417,94.2669 L265.799,94.1907"/>
            <path d="M265.092,94.4836 L265.417,94.2669"/>
            <path d="M264.876,94.8081 L265.092,94.4836"/>
            <path d="M264.799,95.1907 L264.876,94.8081"/>
            <path d="M264.799,99.5907 L264.799,95.1907"/>
            <path d="M264.876,99.9734 L264.799,99.5907"/>
            <path d="M265.092,100.298 L264.876,99.9734"/>
            <path d="M278.799,102.531 L274.759,102.531"/>
            <path d="M269.008,92.3906 L268.934,92.4409"/>
            <path d="M269.119,92.2507 L269.008,92.3906"/>
            <path d="M269.184,92.0843 L269.119,92.2507"/>
            <path d="M269.198,91.9059 L269.184,92.0843"/>
            <path d="M269.158,91.7315 L269.198,91.9059"/>
            <path d="M269.069,91.5766 L269.158,91.7315"/>
            <path d="M268.937,91.455 L269.069,91.5766"/>
            <path d="M268.776,91.3774 L268.937,91.455"/>
            <path d="M268.599,91.3507 L268.776,91.3774"/>
            <path d="M268.423,91.3774 L268.599,91.3507"/>
            <path d="M268.261,91.455 L268.423,91.3774"/>
            <path d="M268.13,91.5766 L268.261,91.455"/>
            <path d="M268.041,91.7315 L268.13,91.5766"/>
            <path d="M268.001,91.9059 L268.041,91.7315"/>
            <path d="M268.014,92.0843 L268.001,91.9059"/>
            <path d="M268.08,92.2507 L268.014,92.0843"/>
            <path d="M268.191,92.3906 L268.08,92.2507"/>
            <path d="M268.265,92.4409 L268.191,92.3906"/>
            <path d="M272.399,102.731 L272.399,102.531"/>
            <path d="M268.359,102.731 L272.399,102.731"/>
            <path d="M268.359,102.531 L268.359,102.731"/>
            <path d="M272.399,102.531 L268.359,102.531"/>
            <path d="M274.759,102.531 L272.399,102.531"/>
            <path d="M274.759,102.731 L274.759,102.531"/>
            <path d="M278.799,102.731 L274.759,102.731"/>
            <path d="M278.799,102.531 L278.799,102.731"/>
            <path d="M283.799,102.531 L278.799,102.531"/>
            <path d="M283.799,90.5307 L283.799,102.531"/>
            <path d="M263.799,90.5307 L283.799,90.5307"/>
            <path d="M263.799,102.531 L263.799,90.5307"/>
            <path d="M268.359,102.531 L263.799,102.531"/>
            <path d="M268.774,94.7177 L268.774,92.5177"/>
            <path d="M268.425,94.7177 L268.774,94.7177"/>
            <path d="M268.425,92.5177 L268.425,94.7177"/>
            <path d="M268.51,92.544 L268.425,92.5177"/>
            <path d="M268.689,92.544 L268.51,92.544"/>
            <path d="M268.774,92.5177 L268.689,92.544"/>
            <path d="M268.86,92.4913 L268.774,92.5177"/>
            <path d="M268.934,92.4409 L268.86,92.4913"/>
            <path d="M268.934,96.6409 L268.934,92.4409"/>
            <path d="M268.918,96.7175 L268.934,96.6409"/>
            <path d="M268.875,96.7824 L268.918,96.7175"/>
            <path d="M268.81,96.8257 L268.875,96.7824"/>
            <path d="M268.734,96.8409 L268.81,96.8257"/>
            <path d="M268.465,96.8409 L268.734,96.8409"/>
            <path d="M268.389,96.8257 L268.465,96.8409"/>
            <path d="M268.324,96.7824 L268.389,96.8257"/>
            <path d="M268.28,96.7175 L268.324,96.7824"/>
            <path d="M268.265,96.6409 L268.28,96.7175"/>
            <path d="M268.265,92.4409 L268.265,96.6409"/>
            <path d="M268.339,92.4913 L268.265,92.4409"/>
            <path d="M268.425,92.5177 L268.339,92.4913"/>
        </g>
        <g id="product-7d0e6892-31d9-4a9e-9e87-034e107bc479" class="IfcColumn material-staal projection" ifc:name="Column" ifc:guid="1z3cYICTbAdfw70quGUyHv">
            <path d="M331.63,58.6435 L333.63,58.6435"/>
            <path d="M333.63,58.6435 L333.63,58.4735"/>
            <path d="M333.63,58.4735 L332.926,58.4735"/>
            <path d="M332.718,58.3535 L332.686,58.2335"/>
            <path d="M332.806,58.4414 L332.718,58.3535"/>
            <path d="M332.926,58.4735 L332.806,58.4414"/>
            <path d="M332.686,58.2335 L332.686,55.0535"/>
            <path d="M332.806,54.8457 L332.926,54.8135"/>
            <path d="M332.718,54.9335 L332.806,54.8457"/>
            <path d="M332.686,55.0535 L332.718,54.9335"/>
            <path d="M332.926,54.8135 L333.63,54.8135"/>
            <path d="M333.63,54.8135 L333.63,54.6435"/>
            <path d="M333.63,54.6435 L331.63,54.6435"/>
            <path d="M331.63,54.6435 L331.63,54.8135"/>
            <path d="M331.63,54.8135 L332.334,54.8135"/>
            <path d="M332.542,54.9335 L332.574,55.0535"/>
            <path d="M332.454,54.8457 L332.542,54.9335"/>
            <path d="M332.334,54.8135 L332.454,54.8457"/>
            <path d="M332.574,55.0535 L332.574,58.2335"/>
            <path d="M332.454,58.4414 L332.334,58.4735"/>
            <path d="M332.542,58.3535 L332.454,58.4414"/>
            <path d="M332.574,58.2335 L332.542,58.3535"/>
            <path d="M332.334,58.4735 L331.63,58.4735"/>
            <path d="M331.63,58.4735 L331.63,58.6435"/>
        </g>
        <g id="product-26676fe3-fcfb-4281-93cc-99fb60d65fa1" class="IfcFurniture material-null projection" ifc:name="2dTafelStoelenKlas" ifc:guid="0cPs$Z$Fj2WPFCcVjWrb_X">
            <path d="M288.519,144.812 L288.519,145.812"/>
            <path d="M289.519,144.812 L288.519,144.812"/>
            <path d="M288.996,125.16 L288.884,125.256"/>
            <path d="M288.069,125.213 L288.227,125.24"/>
            <path d="M286.822,125.403 L288.069,125.213"/>
            <path d="M285.011,125.496 L286.822,125.403"/>
            <path d="M283.475,125.491 L285.011,125.496"/>
            <path d="M281.942,125.387 L283.475,125.491"/>
            <path d="M281.562,125.499 L281.942,125.387"/>
            <path d="M288.658,124.977 L288.818,124.869"/>
            <path d="M281.179,133.922 L281.407,133.812"/>
            <path d="M288.632,133.781 L288.566,133.65"/>
            <path d="M291.319,134.992 L278.399,134.992"/>
            <path d="M273.919,144.812 L273.919,145.812"/>
            <path d="M274.919,144.812 L273.919,144.812"/>
            <path d="M263.799,134.992 L276.719,134.992"/>
            <path d="M266.492,133.586 L266.628,133.503"/>
            <path d="M274.018,127.084 L273.916,127.194"/>
            <path d="M274.066,126.698 L274.018,127.084"/>
            <path d="M274.088,125.861 L274.066,126.698"/>
            <path d="M273.965,125.549 L274.088,125.861"/>
            <path d="M266.687,126.033 L266.962,125.499"/>
            <path d="M274.099,124.81 L274.058,124.977"/>
            <path d="M274.252,124.675 L274.099,124.81"/>
            <path d="M274.46,124.67 L274.252,124.675"/>
            <path d="M274.647,124.829 L274.46,124.67"/>
            <path d="M274.647,125.099 L274.647,124.829"/>
            <path d="M274.463,125.257 L274.647,125.099"/>
            <path d="M274.284,125.256 L274.463,125.257"/>
            <path d="M281.334,133.415 L281.228,133.503"/>
            <path d="M281.788,133.825 L281.562,133.746"/>
            <path d="M283.115,133.912 L281.788,133.825"/>
            <path d="M284.916,133.951 L283.115,133.912"/>
            <path d="M287.199,133.88 L284.916,133.951"/>
            <path d="M288.22,133.782 L287.199,133.88"/>
            <path d="M288.369,134.002 L288.265,133.835"/>
            <path d="M274.032,133.781 L273.966,133.65"/>
            <path d="M278.399,145.988 L278.399,144.112"/>
            <path d="M278.438,146.181 L278.399,145.988"/>
            <path d="M278.547,146.345 L278.438,146.181"/>
            <path d="M278.711,146.454 L278.547,146.345"/>
            <path d="M290.814,146.491 L278.711,146.454"/>
            <path d="M291.007,146.453 L290.814,146.491"/>
            <path d="M291.171,146.344 L291.007,146.453"/>
            <path d="M291.281,146.18 L291.171,146.344"/>
            <path d="M291.319,145.987 L291.281,146.18"/>
            <path d="M291.319,134.992 L291.319,145.987"/>
            <path d="M290.919,134.992 L291.319,134.992"/>
            <path d="M290.856,134.83 L290.919,134.992"/>
            <path d="M290.668,134.646 L290.856,134.83"/>
            <path d="M290.413,134.579 L290.668,134.646"/>
            <path d="M290.159,134.646 L290.413,134.579"/>
            <path d="M289.97,134.83 L290.159,134.646"/>
            <path d="M289.919,134.992 L289.97,134.83"/>
            <path d="M281.286,129.492 L281.316,127.194"/>
            <path d="M281.286,131.024 L281.286,129.492"/>
            <path d="M281.303,132.556 L281.286,131.024"/>
            <path d="M281.334,133.415 L281.303,132.556"/>
            <path d="M281.402,133.587 L281.334,133.415"/>
            <path d="M281.562,133.746 L281.402,133.587"/>
            <path d="M281.407,133.812 L281.562,133.746"/>
            <path d="M281.335,133.974 L281.407,133.812"/>
            <path d="M281.114,134.091 L281.335,133.974"/>
            <path d="M280.897,134.028 L281.114,134.091"/>
            <path d="M280.787,133.739 L280.897,134.028"/>
            <path d="M280.978,133.495 L280.787,133.739"/>
            <path d="M281.161,133.481 L280.978,133.495"/>
            <path d="M281.228,133.503 L281.161,133.481"/>
            <path d="M281.092,133.586 L281.228,133.503"/>
            <path d="M281.562,125.499 L281.287,126.033"/>
            <path d="M281.501,125.541 L281.562,125.499"/>
            <path d="M281.296,125.228 L281.501,125.541"/>
            <path d="M281.287,126.033 L280.931,125.323"/>
            <path d="M281.139,126.919 L281.287,126.033"/>
            <path d="M281.199,127.136 L281.139,126.919"/>
            <path d="M281.316,127.194 L281.199,127.136"/>
            <path d="M282.216,127.23 L281.316,127.194"/>
            <path d="M284.365,127.281 L282.216,127.23"/>
            <path d="M285.817,127.277 L284.365,127.281"/>
            <path d="M287.253,127.244 L285.817,127.277"/>
            <path d="M288.516,127.194 L287.253,127.244"/>
            <path d="M281.296,125.228 L281.174,125.051"/>
            <path d="M281.284,125.047 L281.296,125.228"/>
            <path d="M281.185,124.825 L281.284,125.047"/>
            <path d="M280.93,124.746 L281.185,124.825"/>
            <path d="M280.7,124.911 L280.93,124.746"/>
            <path d="M280.721,125.224 L280.7,124.911"/>
            <path d="M280.931,125.323 L280.721,125.224"/>
            <path d="M280.88,125.224 L280.931,125.323"/>
            <path d="M288.566,133.65 L288.491,133.504"/>
            <path d="M288.752,133.732 L288.566,133.65"/>
            <path d="M288.851,133.983 L288.752,133.732"/>
            <path d="M288.716,134.217 L288.851,133.983"/>
            <path d="M288.365,134.217 L288.716,134.217"/>
            <path d="M288.23,133.983 L288.365,134.217"/>
            <path d="M288.265,133.835 L288.23,133.983"/>
            <path d="M288.22,133.782 L288.265,133.835"/>
            <path d="M288.491,133.504 L288.22,133.782"/>
            <path d="M288.571,132.388 L288.491,133.504"/>
            <path d="M288.635,130.258 L288.571,132.388"/>
            <path d="M288.561,127.96 L288.635,130.258"/>
            <path d="M288.516,127.194 L288.561,127.96"/>
            <path d="M288.618,127.084 L288.516,127.194"/>
            <path d="M288.666,126.698 L288.618,127.084"/>
            <path d="M288.688,125.861 L288.666,126.698"/>
            <path d="M288.565,125.549 L288.688,125.861"/>
            <path d="M288.408,125.315 L288.565,125.549"/>
            <path d="M288.227,125.24 L288.408,125.315"/>
            <path d="M288.658,124.977 L288.227,125.24"/>
            <path d="M288.699,124.81 L288.658,124.977"/>
            <path d="M288.852,124.675 L288.699,124.81"/>
            <path d="M289.06,124.67 L288.852,124.675"/>
            <path d="M289.247,124.829 L289.06,124.67"/>
            <path d="M289.247,125.099 L289.247,124.829"/>
            <path d="M289.063,125.257 L289.247,125.099"/>
            <path d="M288.884,125.256 L289.063,125.257"/>
            <path d="M288.565,125.549 L288.884,125.256"/>
            <path d="M266.807,133.812 L266.962,133.746"/>
            <path d="M266.807,133.812 L266.579,133.922"/>
            <path d="M266.735,133.974 L266.807,133.812"/>
            <path d="M266.514,134.091 L266.735,133.974"/>
            <path d="M266.297,134.028 L266.514,134.091"/>
            <path d="M266.187,133.739 L266.297,134.028"/>
            <path d="M266.378,133.495 L266.187,133.739"/>
            <path d="M266.561,133.481 L266.378,133.495"/>
            <path d="M266.628,133.503 L266.561,133.481"/>
            <path d="M266.734,133.415 L266.628,133.503"/>
            <path d="M273.971,132.388 L273.891,133.504"/>
            <path d="M274.035,130.258 L273.971,132.388"/>
            <path d="M273.961,127.96 L274.035,130.258"/>
            <path d="M273.916,127.194 L273.961,127.96"/>
            <path d="M272.653,127.244 L273.916,127.194"/>
            <path d="M271.217,127.277 L272.653,127.244"/>
            <path d="M269.765,127.281 L271.217,127.277"/>
            <path d="M267.616,127.23 L269.765,127.281"/>
            <path d="M266.716,127.194 L267.616,127.23"/>
            <path d="M274.284,125.256 L274.396,125.16"/>
            <path d="M273.965,125.549 L274.284,125.256"/>
            <path d="M273.808,125.315 L273.965,125.549"/>
            <path d="M273.627,125.24 L273.808,125.315"/>
            <path d="M273.63,133.983 L273.665,133.835"/>
            <path d="M273.765,134.217 L273.63,133.983"/>
            <path d="M274.116,134.217 L273.765,134.217"/>
            <path d="M274.251,133.983 L274.116,134.217"/>
            <path d="M274.152,133.732 L274.251,133.983"/>
            <path d="M273.966,133.65 L274.152,133.732"/>
            <path d="M273.891,133.504 L273.966,133.65"/>
            <path d="M273.62,133.782 L273.891,133.504"/>
            <path d="M275.37,134.83 L275.319,134.992"/>
            <path d="M275.559,134.646 L275.37,134.83"/>
            <path d="M275.813,134.579 L275.559,134.646"/>
            <path d="M276.068,134.646 L275.813,134.579"/>
            <path d="M276.256,134.83 L276.068,134.646"/>
            <path d="M276.319,134.992 L276.256,134.83"/>
            <path d="M276.719,134.992 L276.319,134.992"/>
            <path d="M276.719,145.987 L276.719,134.992"/>
            <path d="M276.681,146.18 L276.719,145.987"/>
            <path d="M276.571,146.344 L276.681,146.18"/>
            <path d="M276.407,146.453 L276.571,146.344"/>
            <path d="M276.214,146.491 L276.407,146.453"/>
            <path d="M264.111,146.454 L276.214,146.491"/>
            <path d="M263.947,146.345 L264.111,146.454"/>
            <path d="M263.838,146.181 L263.947,146.345"/>
            <path d="M263.799,145.988 L263.838,146.181"/>
            <path d="M263.799,144.112 L263.799,145.988"/>
            <path d="M266.901,125.541 L266.696,125.228"/>
            <path d="M266.962,125.499 L266.901,125.541"/>
            <path d="M267.342,125.387 L266.962,125.499"/>
            <path d="M268.875,125.491 L267.342,125.387"/>
            <path d="M270.411,125.496 L268.875,125.491"/>
            <path d="M272.222,125.403 L270.411,125.496"/>
            <path d="M273.469,125.213 L272.222,125.403"/>
            <path d="M273.627,125.24 L273.469,125.213"/>
            <path d="M274.058,124.977 L273.627,125.24"/>
            <path d="M274.218,124.869 L274.058,124.977"/>
            <path d="M281.199,145.812 L281.199,144.812"/>
            <path d="M280.199,145.812 L281.199,145.812"/>
            <path d="M280.199,144.812 L280.199,145.812"/>
            <path d="M289.519,144.812 L280.199,144.812"/>
            <path d="M289.519,145.812 L289.519,144.812"/>
            <path d="M280.199,145.812 L289.519,145.812"/>
            <path d="M278.399,144.112 L291.319,144.112"/>
            <path d="M278.399,134.992 L278.399,144.112"/>
            <path d="M278.799,134.992 L278.399,134.992"/>
            <path d="M278.85,134.83 L278.799,134.992"/>
            <path d="M279.039,134.646 L278.85,134.83"/>
            <path d="M279.293,134.579 L279.039,134.646"/>
            <path d="M279.548,134.646 L279.293,134.579"/>
            <path d="M279.736,134.83 L279.548,134.646"/>
            <path d="M279.799,134.992 L279.736,134.83"/>
            <path d="M266.599,145.812 L266.599,144.812"/>
            <path d="M265.599,145.812 L266.599,145.812"/>
            <path d="M265.599,144.812 L265.599,145.812"/>
            <path d="M274.919,144.812 L265.599,144.812"/>
            <path d="M274.919,145.812 L274.919,144.812"/>
            <path d="M265.599,145.812 L274.919,145.812"/>
            <path d="M266.28,125.224 L266.331,125.323"/>
            <path d="M266.696,125.228 L266.574,125.051"/>
            <path d="M266.684,125.047 L266.696,125.228"/>
            <path d="M266.585,124.825 L266.684,125.047"/>
            <path d="M266.33,124.746 L266.585,124.825"/>
            <path d="M266.1,124.911 L266.33,124.746"/>
            <path d="M266.121,125.224 L266.1,124.911"/>
            <path d="M266.331,125.323 L266.121,125.224"/>
            <path d="M266.687,126.033 L266.331,125.323"/>
            <path d="M266.539,126.919 L266.687,126.033"/>
            <path d="M266.599,127.136 L266.539,126.919"/>
            <path d="M266.716,127.194 L266.599,127.136"/>
            <path d="M266.686,129.492 L266.716,127.194"/>
            <path d="M266.686,131.024 L266.686,129.492"/>
            <path d="M266.703,132.556 L266.686,131.024"/>
            <path d="M266.734,133.415 L266.703,132.556"/>
            <path d="M266.802,133.587 L266.734,133.415"/>
            <path d="M266.962,133.746 L266.802,133.587"/>
            <path d="M267.188,133.825 L266.962,133.746"/>
            <path d="M268.515,133.912 L267.188,133.825"/>
            <path d="M270.316,133.951 L268.515,133.912"/>
            <path d="M272.599,133.88 L270.316,133.951"/>
            <path d="M273.62,133.782 L272.599,133.88"/>
            <path d="M273.665,133.835 L273.62,133.782"/>
            <path d="M273.769,134.002 L273.665,133.835"/>
            <path d="M265.136,134.83 L265.199,134.992"/>
            <path d="M264.948,134.646 L265.136,134.83"/>
            <path d="M264.693,134.579 L264.948,134.646"/>
            <path d="M264.439,134.646 L264.693,134.579"/>
            <path d="M264.25,134.83 L264.439,134.646"/>
            <path d="M264.199,134.992 L264.25,134.83"/>
            <path d="M263.799,134.992 L264.199,134.992"/>
            <path d="M263.799,144.112 L263.799,134.992"/>
            <path d="M276.719,144.112 L263.799,144.112"/>
        </g>
        <g id="product-438e4d90-60ac-4edf-9e8c-18c1dce87278" class="IfcColumn material-staal projection" ifc:name="Column" ifc:guid="13ZasGOAnEtvwC6C7Sw79u">
            <path d="M341.213,108.846 L343.213,108.846"/>
            <path d="M343.213,108.846 L343.213,108.676"/>
            <path d="M343.213,108.676 L342.509,108.676"/>
            <path d="M342.301,108.556 L342.269,108.436"/>
            <path d="M342.389,108.644 L342.301,108.556"/>
            <path d="M342.509,108.676 L342.389,108.644"/>
            <path d="M342.269,108.436 L342.269,105.256"/>
            <path d="M342.389,105.048 L342.509,105.016"/>
            <path d="M342.301,105.136 L342.389,105.048"/>
            <path d="M342.269,105.256 L342.301,105.136"/>
            <path d="M342.509,105.016 L343.213,105.016"/>
            <path d="M343.213,105.016 L343.213,104.846"/>
            <path d="M343.213,104.846 L341.213,104.846"/>
            <path d="M341.213,104.846 L341.213,105.016"/>
            <path d="M341.213,105.016 L341.917,105.016"/>
            <path d="M342.124,105.136 L342.157,105.256"/>
            <path d="M342.037,105.048 L342.124,105.136"/>
            <path d="M341.917,105.016 L342.037,105.048"/>
            <path d="M342.157,105.256 L342.157,108.436"/>
            <path d="M342.037,108.644 L341.917,108.676"/>
            <path d="M342.124,108.556 L342.037,108.644"/>
            <path d="M342.157,108.436 L342.124,108.556"/>
            <path d="M341.917,108.676 L341.213,108.676"/>
            <path d="M341.213,108.676 L341.213,108.846"/>
        </g>
        <g id="product-f31c71c3-c6ac-4195-add1-8ac87ba6a1df" class="IfcColumn material-staal projection" ifc:name="Column" ifc:guid="3p7773ngn1bQtHYiXxfg7V">
            <path d="M335.63,147.346 L337.63,147.346"/>
            <path d="M337.63,147.346 L337.63,147.176"/>
            <path d="M337.63,147.176 L336.926,147.176"/>
            <path d="M336.718,147.056 L336.686,146.936"/>
            <path d="M336.806,147.144 L336.718,147.056"/>
            <path d="M336.926,147.176 L336.806,147.144"/>
            <path d="M336.686,146.936 L336.686,143.756"/>
            <path d="M336.806,143.548 L336.926,143.516"/>
            <path d="M336.718,143.636 L336.806,143.548"/>
            <path d="M336.686,143.756 L336.718,143.636"/>
            <path d="M336.926,143.516 L337.63,143.516"/>
            <path d="M337.63,143.516 L337.63,143.346"/>
            <path d="M337.63,143.346 L335.63,143.346"/>
            <path d="M335.63,143.346 L335.63,143.516"/>
            <path d="M335.63,143.516 L336.334,143.516"/>
            <path d="M336.542,143.636 L336.574,143.756"/>
            <path d="M336.454,143.548 L336.542,143.636"/>
            <path d="M336.334,143.516 L336.454,143.548"/>
            <path d="M336.574,143.756 L336.574,146.936"/>
            <path d="M336.454,147.144 L336.334,147.176"/>
            <path d="M336.542,147.056 L336.454,147.144"/>
            <path d="M336.574,146.936 L336.542,147.056"/>
            <path d="M336.334,147.176 L335.63,147.176"/>
            <path d="M335.63,147.176 L335.63,147.346"/>
        </g>
    <g ifc:guid="13ZasGOAnEtvwC6C7Sw79u" ifc:name="Column" class="IfcColumn material-staal cut"><path d="M341.2125587463379,108.67567771375433 L341.2125587463379,108.78901236951604 L341.2125587463379,108.84569877088323 L342.54587173461914,108.84569877088323 L343.21252822875977,108.84569877088323 L343.21252822875977,108.73236411512151 L343.21252822875977,108.67567771375433 L342.7432441711426,108.67567771375433 L342.5085639953613,108.67567771375433 L342.4472999572754,108.66350882947698 L342.4167060852051,108.65740531385198 L342.3648262023926,108.62272971570745 L342.338809967041,108.60541099012151 L342.30417251586914,108.55349296033636 L342.2867774963379,108.5275530189301 L342.2746467590332,108.46628898084417 L342.2685432434082,108.43569510877386 L342.2685432434082,106.31567710340276 L342.2685432434082,105.25568717420354 L342.2807502746582,105.19446128309026 L342.2867774963379,105.1638292640473 L342.3214912414551,105.1119493812348 L342.338809967041,105.08597129285589 L342.3907661437988,105.05129569471136 L342.4167060852051,105.03397696912542 L342.4778938293457,105.02176993787542 L342.5085639953613,105.01570456922308 L342.9778480529785,105.01570456922308 L343.21252822875977,105.01570456922308 L343.21252822875977,104.90236991346136 L343.21252822875977,104.84568351209417 L341.8792152404785,104.84568351209417 L341.2125587463379,104.84568351209417 L341.2125587463379,104.95901816785589 L341.2125587463379,105.01570456922308 L341.6818428039551,105.01570456922308 L341.9165229797363,105.01570456922308 L341.97778701782227,105.02787345350042 L342.0083808898926,105.03397696912542 L342.0602607727051,105.06865256726995 L342.08627700805664,105.08597129285589 L342.1209144592285,105.13788932264104 L342.13830947875977,105.1638292640473 L342.15044021606445,105.22509330213323 L342.15654373168945,105.25568717420354 L342.15654373168945,107.37570517957464 L342.15654373168945,108.43569510877386 L342.14868545532227,108.48513358533636 L342.1447944641113,108.5098528236176 L342.1220588684082,108.55444663465276 L342.11069107055664,108.57676261365667 L342.07529067993164,108.61216300428167 L342.05759048461914,108.62986319959417 L342.01303482055664,108.6525987952973 L341.9906806945801,108.6639284461762 L341.9412422180176,108.67178672254339 L341.9165229797363,108.67567771375433 L341.44723892211914,108.67567771375433 Z"/></g><g ifc:guid="1z3cYICTbAdfw70quGUyHv" ifc:name="Column" class="IfcColumn material-staal cut"><path d="M331.6301918029785,58.4734987586762 L331.6301918029785,58.58683341443792 L331.6301918029785,58.64351981580511 L332.96350479125977,58.64351981580511 L333.6301612854004,58.64351981580511 L333.6301612854004,58.53018516004339 L333.6301612854004,58.4734987586762 L333.1608772277832,58.4734987586762 L332.92619705200195,58.4734987586762 L332.864933013916,58.46132987439886 L332.8343391418457,58.45522635877386 L332.7824592590332,58.420550760629325 L332.75644302368164,58.40323203504339 L332.72180557250977,58.35131400525823 L332.7044105529785,58.32537406385198 L332.6922798156738,58.264110025766044 L332.6861763000488,58.23351615369573 L332.6861763000488,56.11349814832464 L332.6861763000488,55.05350821912542 L332.6983833312988,54.99228232801214 L332.7044105529785,54.96165030896917 L332.7391242980957,54.90977042615667 L332.75644302368164,54.88379233777776 L332.80839920043945,54.84911673963323 L332.8343391418457,54.831798014047294 L332.8955268859863,54.819590982797294 L332.92619705200195,54.81352561414495 L333.39548110961914,54.81352561414495 L333.6301612854004,54.81352561414495 L333.6301612854004,54.70019095838323 L333.6301612854004,54.643504557016044 L332.29684829711914,54.643504557016044 L331.6301918029785,54.643504557016044 L331.6301918029785,54.75683921277776 L331.6301918029785,54.81352561414495 L332.0994758605957,54.81352561414495 L332.33415603637695,54.81352561414495 L332.3954200744629,54.825694498422294 L332.4260139465332,54.831798014047294 L332.4778938293457,54.866473612191825 L332.50391006469727,54.88379233777776 L332.53854751586914,54.93571036756292 L332.5559425354004,54.96165030896917 L332.5680732727051,55.02291434705511 L332.5741767883301,55.05350821912542 L332.5741767883301,57.17352622449651 L332.5741767883301,58.23351615369573 L332.5663185119629,58.28295463025823 L332.56242752075195,58.30767386853948 L332.5396919250488,58.35226767957464 L332.52832412719727,58.374583658578544 L332.49292373657227,58.409984049203544 L332.47522354125977,58.427684244516044 L332.43066787719727,58.45041984021917 L332.4083137512207,58.461749491098075 L332.3588752746582,58.46960776746526 L332.33415603637695,58.4734987586762 L331.86487197875977,58.4734987586762 Z"/></g><g ifc:guid="3p7773ngn1bQtHYiXxfg7V" ifc:name="Column" class="IfcColumn material-staal cut"><path d="M335.6302070617676,147.17573874891056 L335.6302070617676,147.28907340467228 L335.6302070617676,147.34575980603947 L336.9635200500488,147.34575980603947 L337.63017654418945,147.34575980603947 L337.63017654418945,147.23242515027775 L337.63017654418945,147.17573874891056 L337.16089248657227,147.17573874891056 L336.926212310791,147.17573874891056 L336.8649482727051,147.16356986463322 L336.83435440063477,147.15746634900822 L336.78247451782227,147.1227907508637 L336.7564582824707,147.10547202527775 L336.7218208312988,147.0535539954926 L336.7044258117676,147.02761405408634 L336.6922950744629,146.9663500160004 L336.6861915588379,146.9357561439301 L336.6861915588379,144.815738138559 L336.6861915588379,143.75574820935978 L336.6983985900879,143.6945223182465 L336.7044258117676,143.66389029920353 L336.73913955688477,143.61201041639103 L336.7564582824707,143.58603232801212 L336.8084144592285,143.5513567298676 L336.83435440063477,143.53403800428165 L336.8955421447754,143.52183097303165 L336.926212310791,143.5157656043793 L337.3954963684082,143.5157656043793 L337.63017654418945,143.5157656043793 L337.63017654418945,143.4024309486176 L337.63017654418945,143.3457445472504 L336.2968635559082,143.3457445472504 L335.6302070617676,143.3457445472504 L335.6302070617676,143.45907920301212 L335.6302070617676,143.5157656043793 L336.09949111938477,143.5157656043793 L336.334171295166,143.5157656043793 L336.39543533325195,143.52793448865665 L336.42602920532227,143.53403800428165 L336.47790908813477,143.5687136024262 L336.5039253234863,143.58603232801212 L336.5385627746582,143.63795035779728 L336.55595779418945,143.66389029920353 L336.56808853149414,143.72515433728947 L336.57419204711914,143.75574820935978 L336.57419204711914,145.87576621473087 L336.57419204711914,146.9357561439301 L336.56633377075195,146.9851946204926 L336.562442779541,147.00991385877384 L336.5397071838379,147.054507669809 L336.5283393859863,147.0768236488129 L336.4929389953613,147.1122240394379 L336.4752388000488,147.1299242347504 L336.4306831359863,147.15265983045353 L336.40832901000977,147.16398948133244 L336.35889053344727,147.17184775769962 L336.334171295166,147.17573874891056 L335.8648872375488,147.17573874891056 Z"/></g></g>
</svg>