<svg xmlns="http://www.w3.org/2000/svg" xmlns:xlink="http://www.w3.org/1999/xlink" xmlns:ifc="http://www.ifcopenshell.org/ns" width="500mm" height="500mm" viewBox="0 0 500 500">
    <defs>
        <marker id="arrowend" markerWidth="10" markerHeight="7" refX="10" refY="3.5" orient="auto">
          <polygon points="0 0, 10 3.5, 0 7"/>
        </marker>
        <marker id="arrowstart" markerWidth="10" markerHeight="7" refX="0" refY="3.5" orient="auto">
          <polygon points="10 0, 0 3.5, 10 7"/>
        </marker>
    </defs>
    <g ifc:name="Elevation PLAN_VIEW" class="section" ifc:plane="[[1.000000,0.000000,0.000000,0.000000],[0.000000,1.000000,0.000000,0.000000],[0.000000,0.000000,1.000000,6.000000],[0.000000,0.000000,0.000000,1.000000]]" ifc:matrix3="[[10.000000,0.000000,249.999995],[0.000000,10.000000,249.999995],[0.000000,0.000000,1.000000]]">
        <g class="projection">
            <path d="M250,251.245 L250,251.33"/>
            <path d="M250.552,251.245 L250,251.245"/>
            <path d="M250.672,250.205 L250.672,251.125"/>
            <path d="M250,250.085 L250.552,250.085"/>
            <path d="M250,250 L250,250.085"/>
            <path d="M251.4,250 L250,250"/>
            <path d="M251.4,250.085 L251.4,250"/>
            <path d="M250.847,250.085 L251.4,250.085"/>
            <path d="M250.727,251.125 L250.727,250.205"/>
            <path d="M251.4,251.245 L250.847,251.245"/>
            <path d="M251.4,251.33 L251.4,251.245"/>
            <path d="M250,251.33 L251.4,251.33"/>
            <path d="M250.656,251.185 L250.672,251.125"/>
            <path d="M250.612,251.229 L250.656,251.185"/>
            <path d="M250.552,251.245 L250.612,251.229"/>
            <path d="M250.612,250.101 L250.552,250.085"/>
            <path d="M250.656,250.145 L250.612,250.101"/>
            <path d="M250.672,250.205 L250.656,250.145"/>
            <path d="M250.744,250.145 L250.727,250.205"/>
            <path d="M250.787,250.101 L250.744,250.145"/>
            <path d="M250.847,250.085 L250.787,250.101"/>
            <path d="M250.787,251.229 L250.847,251.245"/>
            <path d="M250.744,251.185 L250.787,251.229"/>
            <path d="M250.727,251.125 L250.744,251.185"/>
            <path d="M260,250 L250,250"/>
            <path d="M260,248.2 L260,250"/>
            <path d="M250,248.2 L260,248.2"/>
            <path d="M250,250 L250,248.2"/>
            <path d="M251,238.2 L251,248.2"/>
            <path d="M250,238.2 L251,238.2"/>
            <path d="M250,248.2 L250,238.2"/>
            <path d="M251,248.2 L250,248.2"/>
        </g>
    </g>
</svg>